G04 EAGLE Gerber RS-274X export*
G75*
%MOMM*%
%FSLAX34Y34*%
%LPD*%
%INSilkscreen Bottom*%
%IPPOS*%
%AMOC8*
5,1,8,0,0,1.08239X$1,22.5*%
G01*
%ADD10C,0.203200*%


D10*
X94234Y51816D02*
X83566Y51816D01*
X83566Y56557D01*
X83566Y60545D02*
X84159Y60545D01*
X84159Y61138D01*
X83566Y61138D01*
X83566Y60545D01*
X83566Y66294D02*
X94234Y66294D01*
X94234Y71035D01*
X89493Y71035D02*
X89493Y66294D01*
X90678Y76096D02*
X83566Y76096D01*
X90678Y76096D02*
X90678Y79652D01*
X89493Y79652D01*
X87715Y85603D02*
X87715Y88270D01*
X87714Y85603D02*
X87712Y85514D01*
X87706Y85425D01*
X87697Y85336D01*
X87683Y85248D01*
X87666Y85160D01*
X87645Y85073D01*
X87621Y84988D01*
X87592Y84903D01*
X87560Y84820D01*
X87525Y84738D01*
X87486Y84657D01*
X87444Y84579D01*
X87398Y84502D01*
X87349Y84428D01*
X87297Y84355D01*
X87241Y84285D01*
X87183Y84217D01*
X87122Y84152D01*
X87058Y84090D01*
X86992Y84030D01*
X86923Y83974D01*
X86852Y83920D01*
X86778Y83869D01*
X86703Y83822D01*
X86625Y83778D01*
X86546Y83737D01*
X86465Y83700D01*
X86382Y83666D01*
X86298Y83636D01*
X86213Y83610D01*
X86126Y83587D01*
X86039Y83568D01*
X85951Y83552D01*
X85863Y83541D01*
X85774Y83533D01*
X85685Y83529D01*
X85595Y83529D01*
X85506Y83533D01*
X85417Y83541D01*
X85329Y83552D01*
X85241Y83568D01*
X85154Y83587D01*
X85067Y83610D01*
X84982Y83636D01*
X84898Y83666D01*
X84815Y83700D01*
X84734Y83737D01*
X84655Y83778D01*
X84577Y83822D01*
X84502Y83869D01*
X84428Y83920D01*
X84357Y83974D01*
X84288Y84030D01*
X84222Y84090D01*
X84158Y84152D01*
X84097Y84217D01*
X84039Y84285D01*
X83983Y84355D01*
X83931Y84428D01*
X83882Y84502D01*
X83836Y84579D01*
X83794Y84657D01*
X83755Y84738D01*
X83720Y84820D01*
X83688Y84903D01*
X83659Y84988D01*
X83635Y85073D01*
X83614Y85160D01*
X83597Y85248D01*
X83583Y85336D01*
X83574Y85425D01*
X83568Y85514D01*
X83566Y85603D01*
X83566Y88270D01*
X88900Y88270D01*
X88982Y88268D01*
X89064Y88262D01*
X89146Y88253D01*
X89227Y88240D01*
X89307Y88223D01*
X89387Y88202D01*
X89465Y88178D01*
X89542Y88150D01*
X89618Y88119D01*
X89693Y88084D01*
X89765Y88045D01*
X89836Y88004D01*
X89905Y87959D01*
X89971Y87911D01*
X90036Y87860D01*
X90098Y87806D01*
X90157Y87749D01*
X90214Y87690D01*
X90268Y87628D01*
X90319Y87563D01*
X90367Y87497D01*
X90412Y87428D01*
X90453Y87357D01*
X90492Y87285D01*
X90527Y87210D01*
X90558Y87134D01*
X90586Y87057D01*
X90610Y86979D01*
X90631Y86899D01*
X90648Y86819D01*
X90661Y86738D01*
X90670Y86656D01*
X90676Y86574D01*
X90678Y86492D01*
X90678Y84121D01*
X90678Y94285D02*
X83566Y94285D01*
X90678Y94285D02*
X90678Y97248D01*
X90676Y97330D01*
X90670Y97412D01*
X90661Y97494D01*
X90648Y97575D01*
X90631Y97655D01*
X90610Y97735D01*
X90586Y97813D01*
X90558Y97890D01*
X90527Y97966D01*
X90492Y98041D01*
X90453Y98113D01*
X90412Y98184D01*
X90367Y98253D01*
X90319Y98319D01*
X90268Y98384D01*
X90214Y98446D01*
X90157Y98505D01*
X90098Y98562D01*
X90036Y98616D01*
X89971Y98667D01*
X89905Y98715D01*
X89836Y98760D01*
X89765Y98801D01*
X89693Y98840D01*
X89618Y98875D01*
X89542Y98906D01*
X89465Y98934D01*
X89387Y98958D01*
X89307Y98979D01*
X89227Y98996D01*
X89146Y99009D01*
X89064Y99018D01*
X88982Y99024D01*
X88900Y99026D01*
X83566Y99026D01*
X90678Y104191D02*
X90678Y108932D01*
X83566Y104191D01*
X83566Y108932D01*
X83566Y114300D02*
X94234Y114300D01*
X90678Y119041D02*
X87122Y114300D01*
X88604Y116374D02*
X83566Y119041D01*
X83566Y125400D02*
X83566Y128363D01*
X83566Y125400D02*
X83568Y125318D01*
X83574Y125236D01*
X83583Y125154D01*
X83596Y125073D01*
X83613Y124993D01*
X83634Y124913D01*
X83658Y124835D01*
X83686Y124758D01*
X83717Y124682D01*
X83752Y124607D01*
X83791Y124535D01*
X83832Y124464D01*
X83877Y124395D01*
X83925Y124329D01*
X83976Y124264D01*
X84030Y124202D01*
X84087Y124143D01*
X84146Y124086D01*
X84208Y124032D01*
X84273Y123981D01*
X84339Y123933D01*
X84408Y123888D01*
X84479Y123847D01*
X84551Y123808D01*
X84626Y123773D01*
X84702Y123742D01*
X84779Y123714D01*
X84857Y123690D01*
X84937Y123669D01*
X85017Y123652D01*
X85098Y123639D01*
X85180Y123630D01*
X85262Y123624D01*
X85344Y123622D01*
X88307Y123622D01*
X88307Y123621D02*
X88404Y123623D01*
X88500Y123629D01*
X88596Y123639D01*
X88692Y123653D01*
X88787Y123670D01*
X88882Y123692D01*
X88975Y123717D01*
X89067Y123746D01*
X89158Y123779D01*
X89248Y123816D01*
X89336Y123856D01*
X89422Y123900D01*
X89506Y123947D01*
X89589Y123997D01*
X89669Y124051D01*
X89747Y124109D01*
X89823Y124169D01*
X89896Y124232D01*
X89966Y124298D01*
X90034Y124368D01*
X90099Y124439D01*
X90161Y124514D01*
X90219Y124591D01*
X90275Y124670D01*
X90327Y124751D01*
X90376Y124835D01*
X90422Y124920D01*
X90464Y125007D01*
X90502Y125096D01*
X90537Y125186D01*
X90568Y125278D01*
X90595Y125371D01*
X90619Y125464D01*
X90638Y125559D01*
X90654Y125655D01*
X90666Y125751D01*
X90674Y125847D01*
X90678Y125944D01*
X90678Y126040D01*
X90674Y126137D01*
X90666Y126233D01*
X90654Y126329D01*
X90638Y126425D01*
X90619Y126520D01*
X90595Y126613D01*
X90568Y126706D01*
X90537Y126798D01*
X90502Y126888D01*
X90464Y126977D01*
X90422Y127064D01*
X90376Y127149D01*
X90327Y127233D01*
X90275Y127314D01*
X90219Y127393D01*
X90161Y127470D01*
X90099Y127545D01*
X90034Y127616D01*
X89966Y127686D01*
X89896Y127752D01*
X89823Y127815D01*
X89747Y127875D01*
X89669Y127933D01*
X89589Y127987D01*
X89506Y128037D01*
X89422Y128084D01*
X89336Y128128D01*
X89248Y128168D01*
X89158Y128205D01*
X89067Y128238D01*
X88975Y128267D01*
X88882Y128292D01*
X88787Y128314D01*
X88692Y128331D01*
X88596Y128345D01*
X88500Y128355D01*
X88404Y128361D01*
X88307Y128363D01*
X87122Y128363D01*
X87122Y123622D01*
X75184Y53001D02*
X64516Y53001D01*
X64516Y51816D02*
X64516Y54187D01*
X75184Y54187D02*
X75184Y51816D01*
X75184Y62145D02*
X64516Y58589D01*
X64516Y65701D02*
X75184Y62145D01*
X67183Y64812D02*
X67183Y59478D01*
X64516Y70993D02*
X75184Y70993D01*
X75184Y73956D01*
X75182Y74062D01*
X75176Y74167D01*
X75167Y74273D01*
X75154Y74378D01*
X75137Y74482D01*
X75116Y74586D01*
X75092Y74689D01*
X75064Y74791D01*
X75032Y74892D01*
X74997Y74991D01*
X74958Y75090D01*
X74916Y75187D01*
X74871Y75282D01*
X74822Y75376D01*
X74769Y75468D01*
X74714Y75558D01*
X74655Y75646D01*
X74593Y75732D01*
X74528Y75815D01*
X74460Y75896D01*
X74390Y75975D01*
X74316Y76051D01*
X74240Y76125D01*
X74161Y76195D01*
X74080Y76263D01*
X73997Y76328D01*
X73911Y76390D01*
X73823Y76449D01*
X73733Y76504D01*
X73641Y76557D01*
X73547Y76606D01*
X73452Y76651D01*
X73355Y76693D01*
X73256Y76732D01*
X73157Y76767D01*
X73056Y76799D01*
X72954Y76827D01*
X72851Y76851D01*
X72747Y76872D01*
X72643Y76889D01*
X72538Y76902D01*
X72432Y76911D01*
X72327Y76917D01*
X72221Y76919D01*
X72221Y76920D02*
X67479Y76920D01*
X67479Y76919D02*
X67373Y76917D01*
X67268Y76911D01*
X67162Y76902D01*
X67057Y76889D01*
X66953Y76872D01*
X66849Y76851D01*
X66746Y76827D01*
X66644Y76799D01*
X66543Y76767D01*
X66444Y76732D01*
X66345Y76693D01*
X66248Y76651D01*
X66153Y76606D01*
X66059Y76557D01*
X65967Y76504D01*
X65877Y76449D01*
X65789Y76390D01*
X65703Y76328D01*
X65620Y76263D01*
X65539Y76195D01*
X65460Y76125D01*
X65384Y76051D01*
X65310Y75975D01*
X65240Y75896D01*
X65172Y75815D01*
X65107Y75732D01*
X65045Y75646D01*
X64986Y75558D01*
X64931Y75468D01*
X64878Y75376D01*
X64829Y75282D01*
X64784Y75187D01*
X64742Y75090D01*
X64703Y74991D01*
X64668Y74892D01*
X64636Y74791D01*
X64608Y74689D01*
X64584Y74586D01*
X64563Y74482D01*
X64546Y74378D01*
X64533Y74273D01*
X64524Y74167D01*
X64518Y74062D01*
X64516Y73956D01*
X64516Y70993D01*
X75184Y92160D02*
X75182Y92262D01*
X75176Y92364D01*
X75166Y92466D01*
X75153Y92567D01*
X75135Y92668D01*
X75114Y92768D01*
X75089Y92867D01*
X75060Y92965D01*
X75027Y93062D01*
X74991Y93157D01*
X74951Y93251D01*
X74907Y93343D01*
X74860Y93434D01*
X74809Y93523D01*
X74756Y93610D01*
X74698Y93694D01*
X74638Y93777D01*
X74575Y93857D01*
X74508Y93934D01*
X74439Y94009D01*
X74366Y94082D01*
X74291Y94151D01*
X74214Y94218D01*
X74134Y94281D01*
X74051Y94341D01*
X73967Y94399D01*
X73880Y94452D01*
X73791Y94503D01*
X73700Y94550D01*
X73608Y94594D01*
X73514Y94634D01*
X73418Y94670D01*
X73322Y94703D01*
X73224Y94732D01*
X73125Y94757D01*
X73025Y94778D01*
X72924Y94796D01*
X72823Y94809D01*
X72721Y94819D01*
X72619Y94825D01*
X72517Y94827D01*
X75184Y92160D02*
X75182Y92044D01*
X75176Y91927D01*
X75166Y91811D01*
X75152Y91696D01*
X75135Y91581D01*
X75113Y91466D01*
X75087Y91353D01*
X75058Y91240D01*
X75025Y91128D01*
X74988Y91018D01*
X74947Y90909D01*
X74903Y90801D01*
X74855Y90695D01*
X74803Y90591D01*
X74748Y90488D01*
X74690Y90387D01*
X74628Y90289D01*
X74563Y90192D01*
X74494Y90098D01*
X74422Y90006D01*
X74348Y89917D01*
X74270Y89830D01*
X74189Y89746D01*
X74106Y89665D01*
X74020Y89587D01*
X73931Y89511D01*
X73840Y89439D01*
X73746Y89370D01*
X73650Y89304D01*
X73552Y89241D01*
X73452Y89182D01*
X73350Y89126D01*
X73246Y89074D01*
X73140Y89025D01*
X73032Y88980D01*
X72924Y88938D01*
X72814Y88901D01*
X70442Y93938D02*
X70516Y94013D01*
X70593Y94085D01*
X70673Y94154D01*
X70755Y94221D01*
X70839Y94284D01*
X70926Y94344D01*
X71014Y94401D01*
X71105Y94455D01*
X71198Y94505D01*
X71292Y94552D01*
X71388Y94595D01*
X71486Y94635D01*
X71585Y94671D01*
X71685Y94704D01*
X71787Y94732D01*
X71889Y94757D01*
X71993Y94779D01*
X72097Y94796D01*
X72201Y94810D01*
X72306Y94819D01*
X72412Y94825D01*
X72517Y94827D01*
X70443Y93938D02*
X64516Y88900D01*
X64516Y94827D01*
X69850Y100330D02*
X70060Y100333D01*
X70270Y100340D01*
X70479Y100353D01*
X70688Y100370D01*
X70897Y100393D01*
X71105Y100420D01*
X71312Y100452D01*
X71519Y100490D01*
X71724Y100532D01*
X71929Y100579D01*
X72132Y100631D01*
X72334Y100688D01*
X72535Y100750D01*
X72734Y100816D01*
X72931Y100888D01*
X73127Y100964D01*
X73321Y101044D01*
X73513Y101129D01*
X73702Y101219D01*
X73787Y101250D01*
X73871Y101284D01*
X73953Y101322D01*
X74034Y101364D01*
X74113Y101409D01*
X74190Y101457D01*
X74265Y101508D01*
X74337Y101562D01*
X74408Y101619D01*
X74476Y101679D01*
X74541Y101742D01*
X74604Y101807D01*
X74664Y101875D01*
X74721Y101946D01*
X74775Y102018D01*
X74827Y102093D01*
X74875Y102170D01*
X74920Y102249D01*
X74961Y102330D01*
X74999Y102412D01*
X75034Y102496D01*
X75065Y102581D01*
X75093Y102667D01*
X75117Y102754D01*
X75137Y102843D01*
X75154Y102932D01*
X75167Y103022D01*
X75177Y103112D01*
X75182Y103202D01*
X75184Y103293D01*
X75182Y103384D01*
X75177Y103474D01*
X75167Y103564D01*
X75154Y103654D01*
X75137Y103743D01*
X75117Y103832D01*
X75093Y103919D01*
X75065Y104005D01*
X75034Y104090D01*
X74999Y104174D01*
X74961Y104256D01*
X74920Y104337D01*
X74875Y104416D01*
X74827Y104493D01*
X74776Y104568D01*
X74721Y104640D01*
X74664Y104711D01*
X74604Y104779D01*
X74541Y104844D01*
X74476Y104907D01*
X74408Y104967D01*
X74337Y105024D01*
X74265Y105078D01*
X74190Y105129D01*
X74113Y105177D01*
X74034Y105222D01*
X73953Y105264D01*
X73871Y105302D01*
X73787Y105336D01*
X73702Y105367D01*
X73513Y105457D01*
X73321Y105542D01*
X73127Y105622D01*
X72931Y105698D01*
X72734Y105770D01*
X72535Y105836D01*
X72334Y105898D01*
X72132Y105955D01*
X71929Y106007D01*
X71724Y106054D01*
X71519Y106096D01*
X71312Y106134D01*
X71105Y106166D01*
X70897Y106193D01*
X70688Y106216D01*
X70479Y106233D01*
X70270Y106246D01*
X70060Y106253D01*
X69850Y106256D01*
X69850Y100330D02*
X69640Y100333D01*
X69430Y100340D01*
X69221Y100353D01*
X69012Y100370D01*
X68803Y100393D01*
X68595Y100420D01*
X68388Y100452D01*
X68181Y100490D01*
X67976Y100532D01*
X67771Y100579D01*
X67568Y100631D01*
X67366Y100688D01*
X67165Y100750D01*
X66966Y100816D01*
X66769Y100888D01*
X66573Y100964D01*
X66379Y101044D01*
X66188Y101129D01*
X65998Y101219D01*
X65913Y101250D01*
X65829Y101284D01*
X65747Y101322D01*
X65666Y101364D01*
X65587Y101409D01*
X65510Y101457D01*
X65435Y101508D01*
X65363Y101562D01*
X65292Y101619D01*
X65224Y101679D01*
X65159Y101742D01*
X65096Y101807D01*
X65036Y101875D01*
X64979Y101946D01*
X64924Y102018D01*
X64873Y102093D01*
X64825Y102170D01*
X64780Y102249D01*
X64739Y102330D01*
X64701Y102412D01*
X64666Y102496D01*
X64635Y102581D01*
X64607Y102667D01*
X64583Y102754D01*
X64563Y102843D01*
X64546Y102932D01*
X64533Y103022D01*
X64523Y103112D01*
X64518Y103202D01*
X64516Y103293D01*
X65998Y105367D02*
X66188Y105457D01*
X66379Y105542D01*
X66573Y105622D01*
X66769Y105698D01*
X66966Y105770D01*
X67165Y105836D01*
X67366Y105898D01*
X67568Y105955D01*
X67771Y106007D01*
X67976Y106054D01*
X68181Y106096D01*
X68388Y106134D01*
X68595Y106166D01*
X68803Y106193D01*
X69012Y106216D01*
X69221Y106233D01*
X69430Y106246D01*
X69640Y106253D01*
X69850Y106256D01*
X65998Y105367D02*
X65913Y105336D01*
X65829Y105302D01*
X65747Y105264D01*
X65666Y105222D01*
X65587Y105177D01*
X65510Y105129D01*
X65435Y105078D01*
X65363Y105024D01*
X65292Y104967D01*
X65224Y104907D01*
X65159Y104844D01*
X65096Y104779D01*
X65036Y104711D01*
X64979Y104640D01*
X64924Y104568D01*
X64873Y104493D01*
X64825Y104416D01*
X64780Y104337D01*
X64739Y104256D01*
X64701Y104174D01*
X64666Y104090D01*
X64635Y104005D01*
X64607Y103919D01*
X64583Y103832D01*
X64563Y103743D01*
X64546Y103654D01*
X64533Y103564D01*
X64523Y103474D01*
X64518Y103384D01*
X64516Y103293D01*
X66887Y100923D02*
X72813Y105664D01*
X75184Y115020D02*
X75182Y115122D01*
X75176Y115224D01*
X75166Y115326D01*
X75153Y115427D01*
X75135Y115528D01*
X75114Y115628D01*
X75089Y115727D01*
X75060Y115825D01*
X75027Y115922D01*
X74991Y116017D01*
X74951Y116111D01*
X74907Y116203D01*
X74860Y116294D01*
X74809Y116383D01*
X74756Y116470D01*
X74698Y116554D01*
X74638Y116637D01*
X74575Y116717D01*
X74508Y116794D01*
X74439Y116869D01*
X74366Y116942D01*
X74291Y117011D01*
X74214Y117078D01*
X74134Y117141D01*
X74051Y117201D01*
X73967Y117259D01*
X73880Y117312D01*
X73791Y117363D01*
X73700Y117410D01*
X73608Y117454D01*
X73514Y117494D01*
X73418Y117530D01*
X73322Y117563D01*
X73224Y117592D01*
X73125Y117617D01*
X73025Y117638D01*
X72924Y117656D01*
X72823Y117669D01*
X72721Y117679D01*
X72619Y117685D01*
X72517Y117687D01*
X75184Y115020D02*
X75182Y114904D01*
X75176Y114787D01*
X75166Y114671D01*
X75152Y114556D01*
X75135Y114441D01*
X75113Y114326D01*
X75087Y114213D01*
X75058Y114100D01*
X75025Y113988D01*
X74988Y113878D01*
X74947Y113769D01*
X74903Y113661D01*
X74855Y113555D01*
X74803Y113451D01*
X74748Y113348D01*
X74690Y113247D01*
X74628Y113149D01*
X74563Y113052D01*
X74494Y112958D01*
X74422Y112866D01*
X74348Y112777D01*
X74270Y112690D01*
X74189Y112606D01*
X74106Y112525D01*
X74020Y112447D01*
X73931Y112371D01*
X73840Y112299D01*
X73746Y112230D01*
X73650Y112164D01*
X73552Y112101D01*
X73452Y112042D01*
X73350Y111986D01*
X73246Y111934D01*
X73140Y111885D01*
X73032Y111840D01*
X72924Y111798D01*
X72814Y111761D01*
X70442Y116798D02*
X70516Y116873D01*
X70593Y116945D01*
X70673Y117014D01*
X70755Y117081D01*
X70839Y117144D01*
X70926Y117204D01*
X71014Y117261D01*
X71105Y117315D01*
X71198Y117365D01*
X71292Y117412D01*
X71388Y117455D01*
X71486Y117495D01*
X71585Y117531D01*
X71685Y117564D01*
X71787Y117592D01*
X71889Y117617D01*
X71993Y117639D01*
X72097Y117656D01*
X72201Y117670D01*
X72306Y117679D01*
X72412Y117685D01*
X72517Y117687D01*
X70443Y116798D02*
X64516Y111760D01*
X64516Y117687D01*
X75184Y126449D02*
X75182Y126551D01*
X75176Y126653D01*
X75166Y126755D01*
X75153Y126856D01*
X75135Y126957D01*
X75114Y127057D01*
X75089Y127156D01*
X75060Y127254D01*
X75027Y127351D01*
X74991Y127446D01*
X74951Y127540D01*
X74907Y127632D01*
X74860Y127723D01*
X74809Y127812D01*
X74756Y127899D01*
X74698Y127983D01*
X74638Y128066D01*
X74575Y128146D01*
X74508Y128223D01*
X74439Y128298D01*
X74366Y128371D01*
X74291Y128440D01*
X74214Y128507D01*
X74134Y128570D01*
X74051Y128630D01*
X73967Y128688D01*
X73880Y128741D01*
X73791Y128792D01*
X73700Y128839D01*
X73608Y128883D01*
X73514Y128923D01*
X73418Y128959D01*
X73322Y128992D01*
X73224Y129021D01*
X73125Y129046D01*
X73025Y129067D01*
X72924Y129085D01*
X72823Y129098D01*
X72721Y129108D01*
X72619Y129114D01*
X72517Y129116D01*
X75184Y126449D02*
X75182Y126333D01*
X75176Y126216D01*
X75166Y126100D01*
X75152Y125985D01*
X75135Y125870D01*
X75113Y125755D01*
X75087Y125642D01*
X75058Y125529D01*
X75025Y125417D01*
X74988Y125307D01*
X74947Y125198D01*
X74903Y125090D01*
X74855Y124984D01*
X74803Y124880D01*
X74748Y124777D01*
X74690Y124676D01*
X74628Y124578D01*
X74563Y124481D01*
X74494Y124387D01*
X74422Y124295D01*
X74348Y124206D01*
X74270Y124119D01*
X74189Y124035D01*
X74106Y123954D01*
X74020Y123876D01*
X73931Y123800D01*
X73840Y123728D01*
X73746Y123659D01*
X73650Y123593D01*
X73552Y123530D01*
X73452Y123471D01*
X73350Y123415D01*
X73246Y123363D01*
X73140Y123314D01*
X73032Y123269D01*
X72924Y123227D01*
X72814Y123190D01*
X70442Y128228D02*
X70516Y128303D01*
X70593Y128375D01*
X70673Y128444D01*
X70755Y128511D01*
X70839Y128574D01*
X70926Y128634D01*
X71014Y128691D01*
X71105Y128745D01*
X71198Y128795D01*
X71292Y128842D01*
X71388Y128885D01*
X71486Y128925D01*
X71585Y128961D01*
X71685Y128994D01*
X71787Y129022D01*
X71889Y129047D01*
X71993Y129069D01*
X72097Y129086D01*
X72201Y129100D01*
X72306Y129109D01*
X72412Y129115D01*
X72517Y129117D01*
X70443Y128228D02*
X64516Y123190D01*
X64516Y129117D01*
M02*
